<?xml version="1.0" encoding="utf-8"?>
<?xml-stylesheet type="text/xsl" href="rss1.xsl"?>
<rss version="2.0" xmlns:atom="http://www.w3.org/2005/Atom" xmlns:content="http://purl.org/rss/1.0/modules/content/" xmlns:dc="http://purl.org/dc/elements/1.1/" xmlns:media="http://search.yahoo.com/mrss/">
<channel>
 <title>Getty</title>
 <link>http://www.gettyimg.com/</link>
 <atom:link href="http://www.gettyimg.com/" rel="self" type="application/rss+xml" />

 
                <item>
                <title><![CDATA[【MTV HD】Dennis Lloyd - Nevermind [MTV Live UK 1080i HDTV DD5.1 H.264]]]></title>
                <link><![CDATA[https://sharemania.us/threads/dennis-lloyd-nevermind-mtv-live-uk-1080i-hdtv-dd5-1-h-264.250325/]]></link>
                <description><![CDATA[<article>
<blockquote class="messageText SelectQuoteContainer ugc baseHtml">
<img src="https://images2.imgbox.com/43/94/garo1QSk_o.jpg" class="bbCodeImage LbImage" alt="[​IMG]" data-url="https://images2.imgbox.com/43/94/garo1QSk_o.jpg" style=""><br>
<div class="bbCodeBlock bbCodeVfcHH HiddenContent">
<div class="attribution type">Hidden Content:</div>
<blockquote>You must either reply or click 'Like' to see the hidden information contained here.</blockquote>
</div><b>Password: sharemania </b>
<div class="messageTextEndMarker">&nbsp;</div>
</blockquote>
</article>]]></description>
                <author><![CDATA[gustavobonotto]]></author>
                </item>

                
                <item>
                <title><![CDATA[【Apple Music】WEB-RiP - Kali Uchis &amp; KAROL G - Labios Mordidos (1080p)]]></title>
                <link><![CDATA[https://sharemania.us/threads/kali-uchis-karol-g-labios-mordidos-1080p.250316/]]></link>
                <description><![CDATA[<article>
<blockquote class="messageText SelectQuoteContainer ugc baseHtml">
<img src="https://i.postimg.cc/BbvQgvVh/Kali-Uchis-KAROL-G-Labios-Mordidos-mp4.jpg" class="bbCodeImage LbImage" alt="[​IMG]" data-url="https://i.postimg.cc/BbvQgvVh/Kali-Uchis-KAROL-G-Labios-Mordidos-mp4.jpg" style=""><br>
<br>
<div class="bbCodeBlock bbCodeCode">
<div class="type">Code:</div>
<pre>General
Complete name                  : G:\Новая папка\Kali Uchis &amp; KAROL G - Labios Mordidos.mp4
Format                         : MPEG-4
Format profile                 : Base Media
Codec ID                       : isom (isom/iso2/avc1/mp41)
File size                      : 250 MiB
Duration                       : 3 min 28 s
Overall bit rate               : 10.1 Mb/s
Frame rate                     : 24.000 FPS
Movie name                     : Labios Mordidos
Performer                      : Kali Uchis &amp; KAROL G
Genre                          : Latin
ContentType                    : Music Video
Recorded date                  : 2023-11-24 08:00:00 UTC
Writing application            : Lavf56.30.100
Copyright                      : ℗ 2023 Geffen Records

Video
ID                             : 1
Format                         : AVC
Format/Info                    : Advanced Video Codec
Format profile                 : High@L4
Format settings                : CABAC / 5 Ref Frames
Format settings, CABAC         : Yes
Format settings, Reference fra : 5 frames
Format settings, Slice count   : 8 slices per frame
Codec ID                       : avc1
Codec ID/Info                  : Advanced Video Coding
Duration                       : 3 min 28 s
Bit rate                       : 9 786 kb/s
Width                          : 1 430 pixels
Height                         : 1 080 pixels
Display aspect ratio           : 4:3
Frame rate mode                : Constant
Frame rate                     : 24.000 FPS
Color space                    : YUV
Chroma subsampling             : 4:2:0
Bit depth                      : 8 bits
Scan type                      : Progressive
Bits/(Pixel*Frame)             : 0.264
Stream size                    : 243 MiB (97%)
Language                       : English
Color range                    : Limited
Color primaries                : BT.709
Transfer characteristics       : BT.709
Matrix coefficients            : BT.709
Codec configuration box        : avcC

Audio
ID                             : 2
Format                         : AAC LC
Format/Info                    : Advanced Audio Codec Low Complexity
Codec ID                       : mp4a-40-2
Duration                       : 3 min 28 s
Duration_LastFrame             : -19 ms
Bit rate mode                  : Constant
Bit rate                       : 276 kb/s
Channel(s)                     : 2 channels
Channel layout                 : L R
Sampling rate                  : 48.0 kHz
Frame rate                     : 46.875 FPS (1024 SPF)
Compression mode               : Lossy
Stream size                    : 6.86 MiB (3%)
Default                        : Yes
Alternate group                : 1

</pre>
</div>
<div class="bbCodeBlock bbCodeVfcHH HiddenContent">
<div class="attribution type">Hidden Content:</div>
<blockquote>You must either reply or click 'Like' to see the hidden information contained here.</blockquote>
</div>
<div class="messageTextEndMarker">&nbsp;</div>
</blockquote>
</article>]]></description>
                <author><![CDATA[vitalya3]]></author>
                </item>

                
                <item>
                <title><![CDATA[【Requests】[REQ AUD] - Selena - Dreaming of You (1995) (29th Anniversary Edition) (4 Songs) (◗◖Dolby Atmos)]]></title>
                <link><![CDATA[https://sharemania.us/threads/selena-dreaming-of-you-1995-29th-anniversary-edition-4-songs-%E2%97%97%E2%97%96dolby-atmos.250322/]]></link>
                <description><![CDATA[<article>
<blockquote class="messageText SelectQuoteContainer ugc baseHtml">
Hi, Friends Can you Anyone upload and downloading from album of Selena - Dreaming Of You (4 Songs) in Dolby Atmos in apple music please<br>
<br>
Link <a href="https://music.apple.com/us/album/dreaming-of-you/1440826979" target="_blank" class="externalLink" rel="nofollow">https://music.apple.com/us/album/dreaming-of-you/1440826979</a>
<div class="messageTextEndMarker">&nbsp;</div>
</blockquote>
</article>]]></description>
                <author><![CDATA[@warnerbros.familyenterta]]></author>
                </item>

                
                <item>
                <title><![CDATA[【MTV HD】Oliver Tree, Robin Schulz - Miss You [MTV Live UK 1080i HDTV DD5.1 H.264]]]></title>
                <link><![CDATA[https://sharemania.us/threads/oliver-tree-robin-schulz-miss-you-mtv-live-uk-1080i-hdtv-dd5-1-h-264.250320/]]></link>
                <description><![CDATA[<article>
<blockquote class="messageText SelectQuoteContainer ugc baseHtml">
<img src="https://images2.imgbox.com/26/2f/pr0OezlS_o.jpg" class="bbCodeImage LbImage" alt="[​IMG]" data-url="https://images2.imgbox.com/26/2f/pr0OezlS_o.jpg" style=""><br>
<div class="bbCodeBlock bbCodeVfcHH HiddenContent">
<div class="attribution type">Hidden Content:</div>
<blockquote>You must either reply or click 'Like' to see the hidden information contained here.</blockquote>
</div><b>Password: sharemania </b>
<div class="messageTextEndMarker">&nbsp;</div>
</blockquote>
</article>]]></description>
                <author><![CDATA[gustavobonotto]]></author>
                </item>

                
                <item>
                <title><![CDATA[【MTV HD】Kungs vs Cookin’ on 3 Burners - This Girl [MTV Live UK 1080i HDTV DD5.1 H.264]]]></title>
                <link><![CDATA[https://sharemania.us/threads/kungs-vs-cookin%E2%80%99-on-3-burners-this-girl-mtv-live-uk-1080i-hdtv-dd5-1-h-264.250323/]]></link>
                <description><![CDATA[<article>
<blockquote class="messageText SelectQuoteContainer ugc baseHtml">
<img src="https://images2.imgbox.com/fc/d7/iDtqm4Fh_o.jpg" class="bbCodeImage LbImage" alt="[​IMG]" data-url="https://images2.imgbox.com/fc/d7/iDtqm4Fh_o.jpg" style=""><br>
<div class="bbCodeBlock bbCodeVfcHH HiddenContent">
<div class="attribution type">Hidden Content:</div>
<blockquote>You must either reply or click 'Like' to see the hidden information contained here.</blockquote>
</div><b>Password: sharemania </b>
<div class="messageTextEndMarker">&nbsp;</div>
</blockquote>
</article>]]></description>
                <author><![CDATA[gustavobonotto]]></author>
                </item>

                
                <item>
                <title><![CDATA[【Apple Music】WEB-RiP - KAROL G - Punto G (1080p)]]></title>
                <link><![CDATA[https://sharemania.us/threads/karol-g-punto-g-1080p.250319/]]></link>
                <description><![CDATA[<article>
<blockquote class="messageText SelectQuoteContainer ugc baseHtml">
<img src="https://i.postimg.cc/RVS4wqHK/KAROL-G-Punto-G-mp4.jpg" class="bbCodeImage LbImage" alt="[​IMG]" data-url="https://i.postimg.cc/RVS4wqHK/KAROL-G-Punto-G-mp4.jpg" style=""><br>
<br>
<div class="bbCodeBlock bbCodeCode">
<div class="type">Code:</div>
<pre>General
Complete name                  : G:\Новая папка\KAROL G - Punto G.mp4
Format                         : MPEG-4
Format profile                 : Base Media
Codec ID                       : isom (isom/iso2/avc1/mp41)
File size                      : 217 MiB
Duration                       : 3 min 7 s
Overall bit rate               : 9 739 kb/s
Frame rate                     : 23.976 FPS
Movie name                     : Punto G
Performer                      : KAROL G
Genre                          : Latin
ContentType                    : Music Video
Recorded date                  : 2019-04-05 07:00:00 UTC
Writing application            : Lavf56.30.100
Copyright                      : Universal Music Latino; ℗ 2019 UMG Recordings, Inc.

Video
ID                             : 1
Format                         : AVC
Format/Info                    : Advanced Video Codec
Format profile                 : High@L4.1
Format settings                : CABAC / 4 Ref Frames
Format settings, CABAC         : Yes
Format settings, Reference fra : 4 frames
Format settings, Slice count   : 8 slices per frame
Codec ID                       : avc1
Codec ID/Info                  : Advanced Video Coding
Duration                       : 3 min 7 s
Bit rate                       : 9 482 kb/s
Width                          : 1 912 pixels
Height                         : 1 072 pixels
Display aspect ratio           : 16:9
Frame rate mode                : Variable
Frame rate                     : 23.976 FPS
Minimum frame rate             : 23.976 FPS
Maximum frame rate             : 24.096 FPS
Color space                    : YUV
Chroma subsampling             : 4:2:0
Bit depth                      : 8 bits
Scan type                      : Progressive
Bits/(Pixel*Frame)             : 0.193
Stream size                    : 211 MiB (97%)
Language                       : English
Color range                    : Limited
Color primaries                : BT.709
Transfer characteristics       : BT.709
Matrix coefficients            : BT.709
Codec configuration box        : avcC

Audio
ID                             : 2
Format                         : AAC LC
Format/Info                    : Advanced Audio Codec Low Complexity
Codec ID                       : mp4a-40-2
Duration                       : 3 min 7 s
Duration_LastFrame             : -9 ms
Bit rate mode                  : Constant
Bit rate                       : 255 kb/s
Channel(s)                     : 2 channels
Channel layout                 : L R
Sampling rate                  : 48.0 kHz
Frame rate                     : 46.875 FPS (1024 SPF)
Compression mode               : Lossy
Stream size                    : 5.68 MiB (3%)
Default                        : Yes
Alternate group                : 1

</pre>
</div>
<div class="bbCodeBlock bbCodeVfcHH HiddenContent">
<div class="attribution type">Hidden Content:</div>
<blockquote>You must either reply or click 'Like' to see the hidden information contained here.</blockquote>
</div>
<div class="messageTextEndMarker">&nbsp;</div>
</blockquote>
</article>]]></description>
                <author><![CDATA[vitalya3]]></author>
                </item>

                
                <item>
                <title><![CDATA[【MTV HD】Sam Fender - Seventeen Going Under [MTV Live UK 1080i HDTV DD5.1 H.264]]]></title>
                <link><![CDATA[https://sharemania.us/threads/sam-fender-seventeen-going-under-mtv-live-uk-1080i-hdtv-dd5-1-h-264.250318/]]></link>
                <description><![CDATA[<article>
<blockquote class="messageText SelectQuoteContainer ugc baseHtml">
<img src="https://images2.imgbox.com/97/ae/jJtluo7i_o.jpg" class="bbCodeImage LbImage" alt="[​IMG]" data-url="https://images2.imgbox.com/97/ae/jJtluo7i_o.jpg" style=""><br>
<div class="bbCodeBlock bbCodeVfcHH HiddenContent">
<div class="attribution type">Hidden Content:</div>
<blockquote>You must either reply or click 'Like' to see the hidden information contained here.</blockquote>
</div><b>Password: sharemania </b>
<div class="messageTextEndMarker">&nbsp;</div>
</blockquote>
</article>]]></description>
                <author><![CDATA[gustavobonotto]]></author>
                </item>

                
                <item>
                <title><![CDATA[【MTV HD】Lil Nas X - Sun Goes Down [MTV Live UK 1080i HDTV DD5.1 H.264]]]></title>
                <link><![CDATA[https://sharemania.us/threads/lil-nas-x-sun-goes-down-mtv-live-uk-1080i-hdtv-dd5-1-h-264.250321/]]></link>
                <description><![CDATA[<article>
<blockquote class="messageText SelectQuoteContainer ugc baseHtml">
<img src="https://images2.imgbox.com/0d/13/yU8RE64c_o.jpg" class="bbCodeImage LbImage" alt="[​IMG]" data-url="https://images2.imgbox.com/0d/13/yU8RE64c_o.jpg" style=""><br>
<div class="bbCodeBlock bbCodeVfcHH HiddenContent">
<div class="attribution type">Hidden Content:</div>
<blockquote>You must either reply or click 'Like' to see the hidden information contained here.</blockquote>
</div><b>Password: sharemania </b>
<div class="messageTextEndMarker">&nbsp;</div>
</blockquote>
</article>]]></description>
                <author><![CDATA[gustavobonotto]]></author>
                </item>

                
                <item>
                <title><![CDATA[【MTV HD】Central Cee - Commitment Issues [MTV Live UK 1080i HDTV DD5.1 H.264]]]></title>
                <link><![CDATA[https://sharemania.us/threads/central-cee-commitment-issues-mtv-live-uk-1080i-hdtv-dd5-1-h-264.250317/]]></link>
                <description><![CDATA[<article>
<blockquote class="messageText SelectQuoteContainer ugc baseHtml">
<img src="https://images2.imgbox.com/97/a1/Cyd1JmW7_o.jpg" class="bbCodeImage LbImage" alt="[​IMG]" data-url="https://images2.imgbox.com/97/a1/Cyd1JmW7_o.jpg" style=""><br>
<div class="bbCodeBlock bbCodeVfcHH HiddenContent">
<div class="attribution type">Hidden Content:</div>
<blockquote>You must either reply or click 'Like' to see the hidden information contained here.</blockquote>
</div><b>Password: sharemania </b>
<div class="messageTextEndMarker">&nbsp;</div>
</blockquote>
</article>]]></description>
                <author><![CDATA[gustavobonotto]]></author>
                </item>

                
                <item>
                <title><![CDATA[【MTV HD】Jonas Blue, Jack &amp; Jack - Rise [MTV Live UK 1080i HDTV DD5.1 H.264]]]></title>
                <link><![CDATA[https://sharemania.us/threads/jonas-blue-jack-jack-rise-mtv-live-uk-1080i-hdtv-dd5-1-h-264.250324/]]></link>
                <description><![CDATA[<article>
<blockquote class="messageText SelectQuoteContainer ugc baseHtml">
<img src="https://images2.imgbox.com/17/30/jqzUpERy_o.jpg" class="bbCodeImage LbImage" alt="[​IMG]" data-url="https://images2.imgbox.com/17/30/jqzUpERy_o.jpg" style=""><br>
<div class="bbCodeBlock bbCodeVfcHH HiddenContent">
<div class="attribution type">Hidden Content:</div>
<blockquote>You must either reply or click 'Like' to see the hidden information contained here.</blockquote>
</div><b>Password: sharemania </b>
<div class="messageTextEndMarker">&nbsp;</div>
</blockquote>
</article>]]></description>
                <author><![CDATA[gustavobonotto]]></author>
                </item>

                </channel></rss>